<svg height="200px" width="200px" version="1.1" id="Layer_1" xmlns="http://www.w3.org/2000/svg" xmlns:xlink="http://www.w3.org/1999/xlink" viewBox="0 0 512 512" xml:space="preserve" fill="#000000">
  <g id="SVGRepo_bgCarrier" stroke-width="0"></g>
  <g id="SVGRepo_tracerCarrier" stroke-linecap="round" stroke-linejoin="round"></g>
  <g id="SVGRepo_iconCarrier">
    <circle style="fill:#212121;" cx="256" cy="256" r="256"></circle>
    <path style="fill:#212121;" d="M503.434,321.85l-82.513-82.513c-0.357,0-17.165,14.686-29.891,25.85l-86.504-86.218 c-0.445-0.445-63.626,92.979-92.176,135.668l-77.426-77.659l-9.573,13.655c-9.519,7.154-32.306,25.778-31.847,25.319 l227.893,227.606C410.071,480.192,479.913,410.458,503.434,321.85z"></path>
    <polygon style="fill:#ffffff;" points="200.652,353.844 108.292,261.485 119.263,250.515 197.57,328.823 281.488,188.959 401.692,249.061 394.752,262.939 287.401,209.263 "></polygon>
    <circle style="fill:#dc6414;" cx="398.222" cy="256" r="28.444"></circle>
    <path style="fill:#dc6414;" d="M398.222,227.556c15.71,0,28.444,12.734,28.444,28.444s-12.734,28.444-28.444,28.444V227.556z"></path>
    <circle style="fill:#dc6414;" cx="284.444" cy="199.111" r="28.444"></circle>
    <path style="fill:#dc6414;" d="M284.444,170.667c15.71,0,28.444,12.734,28.444,28.444s-12.734,28.444-28.444,28.444V170.667z"></path>
    <g>
      <circle style="fill:#dc6414;" cx="199.111" cy="341.333" r="28.444"></circle>
      <circle style="fill:#dc6414;" cx="113.778" cy="256" r="28.444"></circle>
    </g>
    <g>
      <path style="fill:#dc6414;" d="M199.111,312.889c15.71,0,28.444,12.734,28.444,28.444s-12.734,28.444-28.444,28.444V312.889z"></path>
      <path style="fill:#dc6414;" d="M113.778,227.556c15.71,0,28.444,12.734,28.444,28.444s-12.734,28.444-28.444,28.444V227.556z"></path>
    </g>
  </g>
</svg>